HIERARCHY
ROOT Hips
{
	OFFSET	0.00	0.00	0.00
	CHANNELS 6 Xposition Yposition Zposition Zrotation Xrotation Yrotation
	JOINT LeftUpLeg
	{
		OFFSET	 0.126116	-0.014019	-0.065224
		CHANNELS 3 Zrotation Xrotation Yrotation
		JOINT LeftLeg
		{
			OFFSET	 0.000000	 0.000000	 0.569914
			CHANNELS 3 Zrotation Xrotation Yrotation
			JOINT LeftFoot
			{
				OFFSET	 0.000000	 0.000000	 0.544423
				CHANNELS 3 Zrotation Xrotation Yrotation
				JOINT LeftToeBase
				{
					OFFSET	 0.000000	 0.000000	 0.207117
					CHANNELS 3 Zrotation Xrotation Yrotation
					End Site
					{
						OFFSET	 0.000000	 0.000000	 0.207117
					}
				}
			}
		}
	}
	JOINT RightUpLeg
	{
		OFFSET	-0.124023	-0.008373	-0.065224
		CHANNELS 3 Zrotation Xrotation Yrotation
		JOINT RightLeg
		{
			OFFSET	 0.000000	 0.000000	 0.570047
			CHANNELS 3 Zrotation Xrotation Yrotation
			JOINT RightFoot
			{
				OFFSET	 0.000000	 0.000000	 0.544354
				CHANNELS 3 Zrotation Xrotation Yrotation
				JOINT RightToeBase
				{
					OFFSET	 0.000000	 0.000000	 0.207540
					CHANNELS 3 Zrotation Xrotation Yrotation
					End Site
					{
						OFFSET	 0.000000	 0.000000	 0.207540
					}
				}
			}
		}
	}
	JOINT Spine
	{
		OFFSET	 0.000184	-0.007763	 0.117403
		CHANNELS 3 Zrotation Xrotation Yrotation
		JOINT Spine1
		{
			OFFSET	 0.000000	 0.000000	 0.137269
			CHANNELS 3 Zrotation Xrotation Yrotation
			JOINT Spine2
			{
				OFFSET	 0.000000	 0.000000	 0.156879
				CHANNELS 3 Zrotation Xrotation Yrotation
				JOINT LeftShoulder
				{
					OFFSET	 0.080501	-0.002496	 0.160144
					CHANNELS 3 Zrotation Xrotation Yrotation
					JOINT LeftArm
					{
						OFFSET	 0.000000	 0.000000	 0.164363
						CHANNELS 3 Zrotation Xrotation Yrotation
						JOINT LeftForeArm
						{
							OFFSET	 0.000000	 0.000000	 0.364576
							CHANNELS 3 Zrotation Xrotation Yrotation
							JOINT LeftHand
							{
								OFFSET	 0.000000	 0.000000	 0.360812
								CHANNELS 3 Zrotation Xrotation Yrotation
								JOINT LeftHandIndex1
								{
									OFFSET	 0.000000	 0.000000	 0.086006
									CHANNELS 3 Zrotation Xrotation Yrotation
									JOINT LeftHandIndex2
									{
										OFFSET	 0.000000	 0.000000	 0.047236
										CHANNELS 3 Zrotation Xrotation Yrotation
										JOINT LeftHandIndex3
										{
											OFFSET	-0.004284	-0.000551	 0.038166
											CHANNELS 3 Zrotation Xrotation Yrotation
											End Site
											{
												OFFSET	-0.004284	-0.000551	 0.038166
											}
										}
									}
								}
							}
						}
					}
				}
				JOINT Neck
				{
					OFFSET	 0.000000	 0.000000	 0.176489
					CHANNELS 3 Zrotation Xrotation Yrotation
					JOINT Head
					{
						OFFSET	 0.000000	-0.001747	 0.077940
						CHANNELS 3 Zrotation Xrotation Yrotation
						End Site
						{
							OFFSET	 0.000000	-0.001747	 0.077940
						}
					}
				}
				JOINT RightShoulder
				{
					OFFSET	-0.080363	 0.000306	 0.159706
					CHANNELS 3 Zrotation Xrotation Yrotation
					JOINT RightArm
					{
						OFFSET	 0.000000	 0.000000	 0.164196
						CHANNELS 3 Zrotation Xrotation Yrotation
						JOINT RightForeArm
						{
							OFFSET	 0.000000	 0.000000	 0.365611
							CHANNELS 3 Zrotation Xrotation Yrotation
							JOINT RightHand
							{
								OFFSET	 0.000000	 0.000000	 0.360648
								CHANNELS 3 Zrotation Xrotation Yrotation
								JOINT RightHandIndex1
								{
									OFFSET	 0.000000	 0.000000	 0.069977
									CHANNELS 3 Zrotation Xrotation Yrotation
									JOINT RightHandIndex2
									{
										OFFSET	 0.000000	 0.000000	 0.052305
										CHANNELS 3 Zrotation Xrotation Yrotation
										JOINT RightHandIndex3
										{
											OFFSET	 0.009002	-0.000782	 0.042196
											CHANNELS 3 Zrotation Xrotation Yrotation
											End Site
											{
												OFFSET	 0.009002	-0.000782	 0.042196
											}
										}
									}
								}
							}
						}
					}
				}
			}
		}
	}
}
MOTION
Frames:    13
Frame Time: 0.03333334
 0.009932	 0.015097	 1.192322	 5.620540	-0.890502	-3.612544	 19.100650	-9.781145	-176.314400	 1.227300	-40.745240	 0.570862	 79.802600	 84.121140	-83.710750	-2.368715	 31.729270	-0.072512	-27.916650	-35.644630	-177.771500	 11.033830	-48.077410	 8.829095	-0.132748	 78.777270	 5.845747	 2.358990	 32.997570	 0.103166	-7.222917	 8.408780	 0.829422	 1.366556	 3.094429	 3.028392	-8.138267	-2.938166	-3.744761	-94.082040	 58.976440	 175.080500	 8.967991	 24.719050	-42.631110	-5.798466	 0.158204	-2.707760	 0.996263	-7.351358	-8.043795	-4.865872	 19.352700	-2.798148	-3.871523	 21.600570	 2.192590	-4.804657	 5.587986	 0.144480	-0.044867	-5.100646	 0.222828	-9.923659	 1.755444	 1.975188	 89.726010	 61.740250	 179.865900	-19.142510	 52.239120	 6.795585	 2.146321	-1.499965	 15.281160	-4.705522	 8.024731	 0.325677	 6.279799	 23.799530	-0.548141	 2.013366	 43.645790	-7.106754	 0.745993	 23.304000	 3.458433
 0.006840	-0.058783	 1.180350	 6.440857	 0.207593	-3.986586	 19.181510	-7.199325	-177.666500	 1.611209	-40.764670	 0.821817	 117.685000	 85.280170	-121.528400	-2.365661	 32.221200	-0.083731	-32.427910	-38.788800	 177.607500	 10.630290	-36.388830	 6.814286	-11.729850	 78.101200	 16.452870	 2.361260	 32.658030	 0.095299	-14.965900	 7.548874	 0.942191	 1.154053	 3.580810	 3.149816	-8.343052	-3.343628	-3.824620	-94.358350	 58.985650	 174.490200	 6.071165	 20.486700	-42.866280	-10.833900	 0.681353	-4.849656	 0.975303	-8.098104	-7.980199	-4.847090	 19.790070	-2.818416	-3.849434	 21.881190	 2.170147	-4.794267	 5.710332	 0.137306	-0.006026	-5.180024	 0.311606	-9.974082	 1.704039	 1.873636	 89.563550	 61.953210	 179.473100	-18.512790	 54.249310	 3.766616	 4.576283	-0.370954	 16.686990	-4.922613	 9.037534	-0.760557	 6.240076	 21.359650	-0.617297	 2.250424	 41.570990	-7.315495	 1.288538	 20.832520	 3.200671
 0.001866	-0.138362	 1.160480	 6.749114	 0.709028	-4.494184	 19.679680	-3.557770	-179.563100	 1.874535	-40.755210	 0.993619	 159.079600	 84.869430	-162.536300	-2.351243	 34.309050	-0.132367	-33.345470	-42.745050	 174.222000	 10.314370	-29.233740	 5.459174	-28.958630	 84.032120	 32.215660	 2.345774	 34.806950	 0.145875	-23.049440	 6.961254	 1.284689	 1.007927	 4.483047	 3.120315	-8.409249	-3.803627	-3.831196	-94.505610	 58.937790	 174.184400	 3.150812	 17.729100	-43.233990	-16.283390	 1.643009	-7.192530	 0.056214	-8.566867	-7.520417	-4.830423	 20.350040	-2.888665	-3.811233	 22.361700	 2.131346	-4.753833	 6.184427	 0.109280	 0.053872	-5.326448	 0.349148	-9.930261	 1.640229	 1.674710	 89.406620	 62.027680	 179.092300	-16.709720	 55.500060	 0.931134	 6.813292	 1.151246	 16.798140	-4.908929	 9.556574	-3.029827	 6.180814	 17.944950	-0.712175	 2.672722	 37.449150	-7.680169	 2.002394	 17.431280	 2.892522
-0.005504	-0.212514	 1.137840	 7.149565	 0.647930	-4.448317	 19.799900	 0.088200	 177.783200	 2.505236	-40.596790	 1.401096	-171.501700	 85.708050	 168.508100	-2.300075	 39.822990	-0.270888	-34.804370	-48.083640	 170.835900	 10.909830	-30.749700	 6.027116	-32.845430	 81.876940	 36.486160	 2.337861	 35.778520	 0.169427	-30.139340	 7.034777	 1.236652	 0.912971	 4.646049	 3.056337	-8.407519	-3.983564	-3.839808	-94.526730	 59.133300	 174.106900	 1.023889	 16.812320	-43.334840	-20.545030	 2.862534	-9.238889	-1.012231	-10.014550	-8.362351	-4.869475	 20.576250	-3.182602	-3.770993	 22.861390	 2.090476	-4.689470	 6.932678	 0.064307	 0.161799	-5.462092	 0.296335	-9.721476	 1.730833	 1.351355	 89.356570	 61.735630	 178.982300	-14.653370	 55.846760	-2.685939	 9.084219	 2.758516	 18.647020	-4.474994	 9.037103	-4.895842	 6.180197	 14.623850	-0.500921	 2.981015	 34.048520	-7.939372	 2.662511	 14.143760	 2.641319
-0.014583	-0.294253	 1.120246	 7.585569	 0.142529	-3.379100	 20.317610	 4.761596	 173.685400	 1.761913	-38.012590	 0.867935	-63.520280	 85.753330	 62.945560	-2.132183	 50.217410	-0.593465	-33.717590	-48.103690	 169.718600	 7.015093	-32.135310	 4.152894	-27.289820	 72.551300	 37.469520	 2.340447	 35.469100	 0.161870	-35.738440	 7.071623	 0.244821	 0.634721	 4.723861	 2.923839	-8.426745	-3.840124	-3.922801	-94.444310	 59.358920	 174.246000	 0.003963	 16.230130	-42.769360	-24.450780	 4.163001	-10.884550	-2.043267	-10.398740	-8.662173	-4.894892	 20.739750	-3.383174	-3.751436	 23.101740	 2.070625	-4.618104	 7.752821	 0.013944	 0.274256	-5.470475	 0.242189	-9.479213	 1.910002	 1.609727	 89.342830	 61.403330	 178.961900	-13.211830	 55.435370	-3.821979	 11.506440	 4.322109	 17.308010	-4.603836	 8.312402	-5.799539	 6.283676	 11.671210	 0.096396	 3.153918	 31.979110	-8.081657	 3.174093	 11.510370	 2.470466
-0.024670	-0.389613	 1.105267	 9.407572	-1.018182	-2.004554	 20.941910	 7.748983	 167.938800	 0.292328	-39.995310	-0.038821	-21.871490	 72.110620	 27.695230	-1.587616	 64.443350	-1.334430	-33.712830	-44.998430	 169.876300	 8.138334	-36.827890	 5.360119	-25.849070	 62.977330	 40.809750	 2.340003	 35.521450	 0.163152	-40.887720	 7.391654	-0.881914	-0.181497	 4.717496	 2.282994	-8.633977	-3.476136	-3.839143	-94.326780	 59.146710	 174.532600	 0.519340	 15.403980	-41.741320	-28.271540	 5.711481	-12.429240	-2.233621	-8.417315	-8.518715	-4.862230	 21.089720	-3.308426	-3.708430	 23.625090	 2.026978	-4.539161	 8.648444	-0.042358	 0.391826	-5.369927	 0.271214	-9.362844	 2.385196	 1.991923	 89.119640	 61.182940	 178.446600	-12.139110	 54.372080	-2.783558	 15.563600	 5.824492	 14.447550	-4.302551	 7.557469	-4.448559	 6.355953	 9.152187	 0.445111	 3.356646	 29.391510	-8.245227	 3.549187	 9.536934	 2.359066
-0.038100	-0.491052	 1.096870	 10.474600	-1.606901	-0.387399	 26.587100	 3.999916	 159.624900	 2.143754	-48.010220	 1.331402	-8.723163	 50.171540	 27.090320	-1.292593	 68.353560	-1.681273	-39.586800	-43.444420	 167.121200	 8.651293	-45.878280	 6.784030	-21.248370	 63.369080	 37.661360	 2.365877	 31.936260	 0.078740	-42.412920	 7.407629	-1.864464	-0.639362	 4.248386	 1.522534	-8.810157	-2.944602	-3.684454	-94.112270	 59.860470	 174.886300	 2.156752	 16.297470	-40.714050	-29.969770	 7.245413	-13.673850	-1.442692	-6.603780	-9.246290	-4.773015	 21.406080	-2.878630	-3.632159	 24.535350	 1.949587	-4.478760	 9.325549	-0.085851	 0.355487	-5.367115	 0.179246	-9.418743	 2.813668	 2.096020	 88.990170	 60.305030	 178.196800	-11.506900	 53.289130	-4.477696	 19.869050	 7.998531	 18.115430	-2.768559	 6.272688	-2.491815	 6.396765	 8.847338	 0.611262	 3.386347	 28.997120	-8.268871	 3.677872	 8.852332	 2.323633
-0.049999	-0.589177	 1.096985	 8.262897	-2.389707	 1.015693	 33.660930	-3.350314	 151.921600	-2.031421	-59.073670	-2.045506	 2.668432	 44.543160	 21.516870	-2.376723	 30.321850	-0.040932	-40.055790	-40.708950	 167.100000	 8.158001	-53.012390	 7.142559	-23.098680	 69.550600	 39.603880	 2.374335	 30.484400	 0.046001	-38.771070	 8.003116	-2.980855	-0.321293	 2.633545	 1.856341	-8.451164	-1.953079	-3.981287	-94.019910	 59.634640	 175.121200	 3.751101	 17.760000	-39.104810	-31.231260	 8.650740	-14.618930	-1.799029	-6.253700	-8.397695	-4.702518	 22.306780	-2.735314	-3.552033	 25.467580	 1.868331	-4.387793	 10.331710	-0.151988	 0.226163	-5.384326	 0.148210	-9.559912	 2.781014	 2.259888	 89.195760	 60.302450	 178.665100	-11.995310	 52.626240	-1.790728	 24.497430	 8.608999	 14.717500	-1.027040	 4.626592	-0.812450	 6.400321	 11.064290	 0.613780	 3.200999	 31.394020	-8.119972	 3.451193	 10.055730	 2.387008
-0.057176	-0.679764	 1.106364	 6.388703	-3.151018	 1.479334	 33.483110	-8.978792	 150.856600	-8.110789	-69.517200	-7.935464	 3.918412	 53.759330	 16.868500	-2.381003	 29.486580	-0.022504	-38.421260	-36.912750	 169.212500	 7.650115	-56.434330	 7.021389	-29.583180	 75.911150	 45.043370	 2.374323	 30.486530	 0.046047	-33.293640	 8.615354	-3.278732	 0.037977	 1.868276	 1.880232	-8.105289	-1.363982	-3.819327	-93.898430	 59.496450	 175.403700	 5.485790	 19.713460	-38.508830	-31.679560	 9.720814	-15.239560	-2.687730	-6.122715	-7.645047	-4.610591	 23.542960	-2.549896	-3.473601	 26.357120	 1.788834	-4.262265	 11.693680	-0.244482	 0.090377	-5.267355	 0.028088	-9.653932	 2.677229	 2.101177	 89.470830	 60.132080	 179.295100	-13.288990	 51.471120	 0.297440	 27.792920	 10.889960	 18.860620	 0.848314	 2.384961	 0.009721	 6.376544	 14.042760	 0.479452	 2.971286	 34.161350	-7.931296	 3.046042	 12.176080	 2.511215
-0.060896	-0.764588	 1.119784	 4.895584	-3.755073	 1.183554	 29.394730	-14.646220	 155.607400	-8.762398	-79.880360	-8.975636	-1.186751	 66.316120	 16.927710	-2.376624	 30.340350	-0.041343	-36.570470	-32.698700	 172.409000	 5.506079	-57.915050	 5.313216	-38.860570	 81.085310	 53.801080	 2.374301	 30.488970	 0.046107	-25.376460	 9.085618	-3.001722	 0.469750	 2.205151	 1.911545	-7.885789	-1.323785	-3.591123	-93.747850	 59.819980	 175.688400	 7.685336	 22.657820	-38.805460	-30.319500	 10.498810	-15.655470	-3.425907	-3.643166	-5.776917	-4.579440	 24.246580	-2.585159	-3.401982	 27.150170	 1.716276	-4.152598	 12.858320	-0.326395	-0.082431	-5.071492	-0.061303	-9.834491	 2.502201	 1.947108	 89.587450	 59.754250	 179.564300	-14.515220	 47.948550	 8.530891	 32.336940	 10.527840	 15.724560	 2.369353	 0.424901	 0.839195	 6.376089	 16.883620	 0.437127	 2.737839	 36.760220	-7.735462	 2.549346	 14.716550	 2.681972
-0.063136	-0.855719	 1.136942	 3.248966	-3.735331	 1.047970	 29.356780	-22.026770	 161.867700	-4.106303	-82.636890	-4.422394	-12.345270	 76.155550	 24.177340	-2.371480	 31.262580	-0.061967	-34.980680	-27.679830	 175.339300	 2.602536	-57.071700	 2.821571	-57.293930	 85.131800	 71.881010	 2.372649	 30.789050	 0.052811	-15.090730	 9.042810	-3.115102	 1.073565	 2.316108	 2.253964	-7.690140	-1.491128	-3.656919	-93.548480	 60.202750	 176.078600	 10.615430	 26.948870	-38.714530	-27.692250	 10.868610	-15.858540	-2.884288	-1.492250	-3.219829	-4.538089	 25.195760	-2.646847	-3.345713	 27.760770	 1.659283	-4.100626	 13.402090	-0.365563	-0.289349	-4.839644	-0.140880	-10.054360	 2.058551	 2.353558	 89.783130	 59.936800	-179.997700	-15.107040	 44.054780	 14.681760	 35.726930	 10.939030	 15.895230	 3.120768	 0.891779	 1.683401	 6.377724	 19.146730	 0.405534	 2.524339	 38.963970	-7.553186	 2.131329	 16.799550	 2.840832
-0.063581	-0.944002	 1.153354	 1.587028	-3.288861	 0.649971	 34.489190	-28.810240	 169.601100	-11.512800	-77.621410	-11.597230	 1.487445	 83.959380	 4.894101	-2.384176	 28.819920	-0.007951	-32.752210	-22.816200	 178.187700	 0.164502	-54.740650	 0.753232	-96.272640	 87.531050	 110.519500	 2.368185	 31.558760	 0.070153	-3.870065	 8.741911	-2.916797	 1.715927	 2.431647	 2.556346	-7.452179	-1.727469	-3.730367	-93.230280	 60.293820	 176.773400	 13.363250	 31.455210	-38.029580	-25.851590	 10.780560	-15.840630	-2.675657	 0.700940	-0.692004	-4.509650	 25.797990	-2.675054	-3.295439	 28.297200	 1.608376	-4.062335	 13.799450	-0.394566	-0.424708	-4.775734	-0.196155	-10.192850	 1.778274	 2.462502	 90.087070	 60.361290	-179.304200	-15.677400	 40.614700	 20.677420	 37.797380	 10.873950	 15.845360	 2.802461	 1.457417	 2.832824	 6.378354	 20.102440	 0.389069	 2.424392	 39.942750	-7.466932	 1.954672	 17.663800	 2.911978
-0.064385	-1.034245	 1.164854	-0.226555	-1.986676	-0.925234	 43.598650	-32.905580	-178.670300	-10.285360	-67.391750	-9.837211	 67.855790	 85.083390	-65.484380	-2.382558	 29.165040	-0.015462	-30.590850	-19.060430	-178.376600	-0.730508	-52.271280	 0.021687	-139.649600	 86.146690	 153.811300	 2.353100	 33.836250	 0.122798	 7.694903	 8.138708	-1.278832	 2.405166	 2.774593	 2.625396	-7.186347	-2.313570	-3.562986	-92.966370	 60.096180	 177.374900	 15.153570	 35.087410	-36.010060	-22.504890	 10.213660	-15.591320	-1.445475	 1.945295	 0.491569	-4.380741	 27.997230	-2.580243	-3.136844	 29.935250	 1.447884	-3.924268	 15.208500	-0.500054	-0.505576	-4.848652	-0.160710	-10.292730	 1.573874	 2.681596	 90.184860	 60.738990	-179.069800	-17.756980	 40.488320	 28.544630	 38.455370	 10.770300	 16.364540	 2.854757	 2.401753	 5.825486	 6.403913	 19.929820	 0.558015	 2.399960	 40.177030	-7.445759	 1.917917	 17.842340	 2.927068
